<svg width="1920" height="1080" viewBox="0 0 1920 1080" fill="none" xmlns="http://www.w3.org/2000/svg">
<g clip-path="url(#clip0_18_3651)">
<rect width="1920" height="1080" fill="#D3E0FF"/>
<path fill-rule="evenodd" clip-rule="evenodd" d="M302.5 1357C549.647 1357 750 1156.65 750 909.5C750 777.376 431.153 886.916 340.095 805C260.823 733.687 417.523 462 302.5 462C55.3526 462 -145 662.353 -145 909.5C-145 1156.65 55.3526 1357 302.5 1357Z" fill="#90B2FF"/>
<path opacity="0.541829" fill-rule="evenodd" clip-rule="evenodd" d="M894.471 -231.915C844.505 51.4538 1033.72 321.675 1317.08 371.64C1468.57 398.352 1407.44 10.6298 1519.77 -77.2125C1617.56 -153.685 1897.39 80.9069 1920.64 -50.9738C1970.61 -334.343 1781.4 -604.564 1498.03 -654.529C1214.66 -704.495 944.436 -515.284 894.471 -231.915Z" fill="#90B2FF"/>
<path opacity="0.6" fill-rule="evenodd" clip-rule="evenodd" d="M249.512 -256.946C17.2698 -172.417 -102.475 84.3779 -17.946 316.62C27.2432 440.777 289.396 228.791 402.979 274.623C501.861 314.522 447.534 623.419 555.62 584.079C787.863 499.55 907.608 242.755 823.079 10.5125C738.55 -221.73 481.755 -341.475 249.512 -256.946Z" fill="#90B2FF"/>
<path fill-rule="evenodd" clip-rule="evenodd" d="M2036.38 1008.96C2091.52 696.221 1882.7 397.992 1569.96 342.848C1402.77 313.368 1470.24 741.276 1346.27 838.223C1238.34 922.622 929.512 663.715 903.848 809.264C848.703 1122 1057.53 1420.23 1370.26 1475.38C1683 1530.52 1981.23 1321.7 2036.38 1008.96Z" fill="#90B2FF"/>
</g>
<defs>
<clipPath id="clip0_18_3651">
<rect width="1920" height="1080" fill="white"/>
</clipPath>
</defs>
</svg>
